<svg xmlns="http://www.w3.org/2000/svg" width="285" height="192" viewBox="0 0 285 192" fill="none"><rect x="1" y="1" width="283" height="190" rx="8" fill="white" stroke="#FDEBF0" stroke-width="2"></rect><path d="M127.75 96.0001C135.759 96.0001 142.25 89.5091 142.25 81.5C142.25 73.491 135.759 67 127.75 67C119.741 67 113.25 73.491 113.25 81.5C113.259 89.5045 119.746 95.991 127.75 96.0001ZM127.75 71.8326C133.088 71.8326 137.418 76.16 137.418 81.5C137.418 86.8401 133.09 91.1675 127.75 91.1675C122.41 91.1675 118.083 86.8401 118.083 81.5C118.083 76.16 122.41 71.8326 127.75 71.8326Z" fill="#300C15"></path><path d="M127.748 100.35C115.743 100.364 106.014 110.289 106 122.534C106 123.895 107.083 125 108.417 125C109.751 125 110.834 123.895 110.834 122.534C110.834 113.004 118.408 105.279 127.75 105.279C137.093 105.279 144.666 113.004 144.666 122.534C144.666 123.895 145.749 125 147.083 125C148.417 125 149.5 123.895 149.5 122.534C149.487 110.289 139.757 100.364 127.752 100.35H127.748Z" fill="#300C15"></path><g clip-path="url(#clip0_273_40)"><path d="M178.176 86.7353V91.5765H165.906V104.806H161.232V91.5765H148.962V86.7353H161.232V75.5923H165.906V86.7353H178.176Z" fill="#ED3C6A"></path></g><defs><clipPath id="clip0_273_40"><rect width="29.214" height="29.214" fill="white" transform="translate(148.962 75.5923)"></rect></clipPath></defs></svg>