<svg xmlns="http://www.w3.org/2000/svg" width="285" height="192" viewBox="0 0 285 192" fill="none"><rect x="1" y="1" width="283" height="190" rx="8" fill="white" stroke="#FDEBF0" stroke-width="2"></rect><path d="M142.606 48.8303C148.275 48.8303 152.869 44.2363 152.869 38.568C152.869 32.8997 148.275 28.3057 142.606 28.3057C136.938 28.3057 132.344 32.8997 132.344 38.568C132.35 44.2331 136.941 48.8239 142.606 48.8303ZM142.606 31.7259C146.384 31.7259 149.448 34.7886 149.448 38.568C149.448 42.3474 146.386 45.4101 142.606 45.4101C138.827 45.4101 135.764 42.3474 135.764 38.568C135.764 34.7886 138.827 31.7259 142.606 31.7259Z" fill="#300C15"></path><path d="M142.606 131.525C148.275 131.525 152.869 126.931 152.869 121.262C152.869 115.594 148.275 111 142.606 111C136.938 111 132.344 115.594 132.344 121.262C132.35 126.927 136.941 131.518 142.606 131.525ZM142.606 114.42C146.384 114.42 149.448 117.483 149.448 121.262C149.448 125.042 146.386 128.104 142.606 128.104C138.827 128.104 135.764 125.042 135.764 121.262C135.764 117.483 138.827 114.42 142.606 114.42Z" fill="#300C15"></path><path d="M142.605 51.9089C134.109 51.9187 127.223 58.9433 127.213 67.6098C127.213 68.5731 127.979 69.3549 128.924 69.3549C129.868 69.3549 130.634 68.5731 130.634 67.6098C130.634 60.865 135.994 55.3975 142.606 55.3975C149.219 55.3975 154.578 60.865 154.578 67.6098C154.578 68.5731 155.345 69.3549 156.289 69.3549C157.234 69.3549 158 68.5731 158 67.6098C157.99 58.9433 151.104 51.9187 142.608 51.9089H142.605Z" fill="#300C15"></path><path d="M142.605 134.603C134.109 134.613 127.223 141.638 127.213 150.304C127.213 151.267 127.979 152.049 128.924 152.049C129.868 152.049 130.634 151.267 130.634 150.304C130.634 143.559 135.994 138.092 142.606 138.092C149.219 138.092 154.578 143.559 154.578 150.304C154.578 151.267 155.345 152.049 156.289 152.049C157.234 152.049 158 151.267 158 150.304C157.99 141.638 151.104 134.613 142.608 134.603H142.605Z" fill="#300C15"></path><path d="M102.606 98.8303C108.275 98.8303 112.869 94.2363 112.869 88.568C112.869 82.8997 108.275 78.3057 102.606 78.3057C96.938 78.3057 92.344 82.8997 92.344 88.568C92.3504 94.2331 96.9412 98.8239 102.606 98.8303ZM102.606 81.7259C106.384 81.7259 109.448 84.7886 109.448 88.568C109.448 92.3474 106.386 95.4101 102.606 95.4101C98.8269 95.4101 95.7642 92.3474 95.7642 88.568C95.7642 84.7886 98.8269 81.7259 102.606 81.7259Z" fill="#300C15"></path><path d="M180.393 98.8303C186.062 98.8303 190.656 94.2363 190.656 88.568C190.656 82.8997 186.062 78.3057 180.393 78.3057C174.725 78.3057 170.131 82.8997 170.131 88.568C170.138 94.2331 174.728 98.8239 180.393 98.8303ZM180.393 81.7259C184.171 81.7259 187.236 84.7886 187.236 88.568C187.236 92.3474 184.173 95.4101 180.393 95.4101C176.614 95.4101 173.551 92.3474 173.551 88.568C173.551 84.7886 176.614 81.7259 180.393 81.7259Z" fill="#300C15"></path><path d="M102.605 101.909C94.1088 101.919 87.2225 108.943 87.2129 117.61C87.2129 118.573 87.9793 119.355 88.9236 119.355C89.868 119.355 90.6344 118.573 90.6344 117.61C90.6344 110.865 95.9943 105.397 102.606 105.397C109.219 105.397 114.578 110.865 114.578 117.61C114.578 118.573 115.345 119.355 116.289 119.355C117.234 119.355 118 118.573 118 117.61C117.99 108.943 111.104 101.919 102.608 101.909H102.605Z" fill="#300C15"></path><path d="M180.392 101.909C171.896 101.919 165.01 108.943 165 117.61C165 118.573 165.766 119.355 166.711 119.355C167.655 119.355 168.421 118.573 168.421 117.61C168.421 110.865 173.781 105.397 180.394 105.397C187.006 105.397 192.366 110.865 192.366 117.61C192.366 118.573 193.132 119.355 194.076 119.355C195.021 119.355 195.787 118.573 195.787 117.61C195.777 108.943 188.891 101.919 180.395 101.909H180.392Z" fill="#300C15"></path><g clip-path="url(#clip0_273_41)"><path d="M174.312 56.8086H160.344C160.176 57.6826 159.941 58.5399 159.647 59.3635H174.312C177.867 59.3635 180.767 62.263 180.767 65.818V71.3733H180.775C181.641 71.3733 182.49 71.4405 183.322 71.5666V65.818C183.322 60.8511 179.279 56.8086 174.312 56.8086ZM111.616 137.49C108.061 137.49 105.161 134.591 105.161 131.036V120.522H102.606V131.036C102.606 136.003 106.649 140.045 111.616 140.045H119.869C120.264 139.146 120.743 138.289 121.289 137.49H111.616ZM125.248 56.8086H111.616C106.649 56.8086 102.606 60.8511 102.606 65.818V71.5246C103.329 71.4237 104.069 71.3733 104.825 71.3733C104.934 71.3733 105.052 71.3733 105.161 71.3901V65.818C105.161 62.263 108.061 59.3635 111.616 59.3635H125.945C125.651 58.5399 125.416 57.6826 125.248 56.8086ZM180.767 120.522V131.036C180.767 134.591 177.867 137.49 174.312 137.49H164.311C164.849 138.289 165.328 139.146 165.731 140.045H174.312C179.279 140.045 183.322 136.003 183.322 131.036V120.522H180.767Z" fill="#ED3C6A"></path></g><defs><clipPath id="clip0_273_41"><rect width="80.7151" height="83.2365" fill="white" transform="translate(102.606 56.8086)"></rect></clipPath></defs></svg>