<svg xmlns="http://www.w3.org/2000/svg" width="285" height="192" viewBox="0 0 285 192" fill="none"><rect x="1" y="1" width="283" height="190" rx="8" fill="white" stroke="#FDEBF0" stroke-width="2"></rect><path d="M122.34 124.198V99.4862C122.34 99.4862 106.182 97.11 106.182 111.367C106.182 125.624 122.34 124.198 122.34 124.198Z" stroke="#ED3C6A" stroke-width="2.85139"></path><path d="M159.883 99.189L159.883 123.901C159.883 123.901 176.041 126.277 176.041 112.02C176.041 97.7633 159.883 99.189 159.883 99.189Z" stroke="#ED3C6A" stroke-width="2.85139"></path><path d="M115.211 95.5357C115.211 95.5357 112.835 67.9723 139.923 67.0218C167.012 66.0714 166.061 96.4861 166.061 96.4861M147.052 125H156.556" stroke="#300C15" stroke-width="2.85139"></path><g clip-path="url(#clip0_273_42)"><path d="M151 96.01V99.49H142.18V109H138.82V99.49H130V96.01H138.82V88H142.18V96.01H151Z" fill="#ED3C6A"></path></g><defs><clipPath id="clip0_273_42"><rect width="21" height="21" fill="white" transform="translate(130 88)"></rect></clipPath></defs></svg>